<?xml version="1.0" standalone="no"?>
<!DOCTYPE svg PUBLIC "-//W3C//DTD SVG 20010904//EN"
 "http://www.w3.org/TR/2001/REC-SVG-20010904/DTD/svg10.dtd">
<svg version="1.0" xmlns="http://www.w3.org/2000/svg"
 width="400.000000pt" height="400.000000pt" viewBox="0 0 400.000000 400.000000"
 preserveAspectRatio="xMidYMid meet">

<g transform="translate(0.000000,400.000000) scale(0.100000,-0.100000)"
fill="#000000" stroke="none">
<path d="M4 3693 c3 -248 11 -412 25 -516 1 -4 14 -6 31 -5 19 1 38 -6 53 -20
13 -12 33 -22 45 -22 27 0 52 -46 52 -95 0 -19 9 -52 20 -72 35 -65 20 -148
-28 -160 -40 -10 -66 26 -72 99 l-5 61 -50 17 c-27 9 -55 15 -61 13 -9 -3 -12
-200 -13 -744 -2 -819 -7 -762 65 -712 31 21 56 28 124 34 81 7 127 14 285 39
39 7 85 20 103 31 19 11 37 17 42 14 5 -3 28 0 52 6 24 6 112 13 196 15 143 3
153 2 145 -14 -16 -34 -8 -145 15 -210 44 -120 146 -255 224 -299 33 -18 72
-17 64 2 -3 8 4 24 15 34 19 18 25 18 67 6 35 -11 56 -12 96 -3 28 6 63 10 79
10 17 -1 27 4 27 13 0 8 8 15 19 15 32 0 85 27 115 59 17 17 34 31 39 31 5 0
61 49 125 109 64 61 118 108 120 106 11 -11 -33 -118 -69 -170 l-41 -60 35 34
c41 39 75 110 84 178 5 37 15 57 43 86 36 38 36 38 61 19 27 -20 129 -44 264
-62 50 -6 108 -18 129 -26 32 -11 42 -11 48 -1 4 6 5 77 2 157 -4 80 -9 262
-13 404 -4 196 -9 260 -19 264 -19 6 -45 -65 -37 -105 5 -30 2 -38 -31 -68
-34 -31 -35 -35 -18 -41 30 -11 34 -24 34 -101 0 -54 -5 -82 -21 -113 -12 -22
-25 -40 -30 -40 -5 0 -9 -6 -9 -14 0 -8 -17 -24 -37 -36 -35 -20 -40 -21 -82
-7 -45 14 -81 12 -81 -4 0 -5 -4 -9 -10 -9 -16 0 -12 19 12 50 17 23 22 47 25
107 5 91 -8 87 -26 -7 -7 -36 -16 -67 -21 -70 -4 -3 -11 -16 -15 -30 -6 -20
-49 -70 -61 -70 -2 0 -1 21 3 48 4 39 2 50 -16 66 -23 21 -28 52 -8 59 19 6
14 99 -9 135 -10 17 -50 77 -88 132 -92 134 -131 157 -96 58 10 -29 16 -57 14
-63 -3 -8 -34 -1 -97 21 -102 35 -98 28 -78 129 18 88 24 294 10 328 -6 15
-16 27 -22 27 -5 0 -39 13 -74 30 -34 16 -69 30 -76 30 -6 0 -34 11 -61 25
-27 14 -60 25 -72 25 -31 0 -21 26 13 35 21 5 24 10 20 32 -3 16 3 40 15 61
11 19 20 49 20 65 1 22 9 34 30 46 15 9 31 24 34 34 6 21 41 18 36 -2 -2 -9 3
-11 13 -7 9 3 30 -1 46 -9 47 -25 117 -37 222 -40 55 -1 116 -9 140 -18 23 -8
76 -20 117 -27 41 -7 83 -17 93 -22 11 -5 30 -35 44 -66 22 -50 24 -69 24
-174 -1 -83 2 -117 10 -116 6 2 14 -3 17 -11 3 -10 0 -12 -12 -8 -14 6 -16 2
-10 -28 4 -23 2 -35 -5 -35 -7 0 -10 -24 -9 -67 2 -67 2 -67 5 -13 3 38 7 50
14 40 8 -13 10 -13 19 0 5 8 8 21 5 28 -2 6 -1 12 4 12 9 0 34 76 50 151 6 25
12 100 13 166 2 67 6 116 9 111 4 -7 9 -6 13 1 10 16 47 13 67 -5 17 -15 18
-14 23 18 3 18 8 195 11 393 4 198 7 371 8 384 3 33 25 38 36 9 8 -19 10 -15
12 27 7 160 0 195 -34 182 -16 -6 -16 -28 -2 -144 l4 -32 -82 5 c-45 3 -172
12 -282 20 -110 8 -465 28 -790 44 -324 17 -678 34 -785 40 -511 26 -591 29
-605 24 -11 -5 -15 1 -15 20 0 14 -5 26 -10 26 -7 0 -9 -98 -6 -307z m25 87
c0 -30 -4 -64 -9 -75 -6 -13 -9 11 -9 70 -1 62 2 85 9 75 5 -8 9 -40 9 -70z
m1170 -524 c-14 -12 -31 -34 -39 -51 -17 -34 -30 -49 -47 -52 -32 -6 42 116
82 135 30 14 32 -8 4 -32z m1207 -74 c-6 -6 -26 43 -25 61 0 7 7 -3 15 -22 8
-18 13 -36 10 -39z m44 -63 c0 -6 -4 -7 -10 -4 -5 3 -10 11 -10 16 0 6 5 7 10
4 6 -3 10 -11 10 -16z m-1370 -165 c-13 -92 -25 -96 -36 -11 -5 32 -1 55 11
81 29 62 40 31 25 -70z m488 -259 c-9 -9 -58 9 -58 21 0 12 5 12 31 -1 17 -9
29 -18 27 -20z m-1050 -172 c6 -10 13 -33 17 -51 13 -62 -53 -96 -106 -54 -28
23 -29 90 -2 109 25 19 81 16 91 -4z m970 -23 c94 -1 117 -10 126 -51 5 -20
-1 -29 -36 -54 -24 -16 -67 -49 -96 -72 -29 -24 -63 -43 -75 -43 -13 0 -27 -4
-32 -9 -6 -6 -17 -4 -30 5 -15 11 -20 28 -21 79 -2 36 1 65 7 65 5 0 7 10 4
23 -7 27 29 71 52 63 8 -3 54 -6 101 -6z m-863 -163 c12 -78 -23 -120 -67 -80
-27 25 -25 109 4 141 l23 23 17 -21 c9 -11 20 -40 23 -63z m1145 -242 l25 -14
-30 0 c-16 0 -43 6 -60 14 l-30 13 35 1 c19 0 46 -6 60 -14z m-93 -74 c13 -16
21 -18 36 -9 23 12 34 2 39 -32 2 -20 -2 -26 -21 -28 -13 -2 -28 1 -34 7 -6 6
-26 11 -44 11 -36 0 -42 15 -21 50 16 25 24 25 45 1z m-1417 -97 c0 -8 -5 -12
-10 -9 -6 4 -8 11 -5 16 9 14 15 11 15 -7z m1642 -51 c8 -10 25 -25 37 -34 18
-13 20 -21 12 -40 -59 -149 -55 -144 -116 -174 -22 -11 -42 -23 -45 -26 -8 -9
-40 -19 -38 -11 4 20 -15 39 -34 34 -17 -4 -20 -2 -15 12 6 15 4 15 -21 3 -18
-9 -40 -11 -67 -6 -22 4 -43 5 -47 2 -11 -6 -10 0 8 36 25 50 87 71 97 32 7
-27 43 -16 51 15 4 13 12 24 19 24 7 0 18 9 24 20 10 16 10 22 -1 32 -11 10
-8 17 15 41 29 28 76 57 94 57 6 0 18 -8 27 -17z m-454 -129 c1 -13 -1 -24 -5
-24 -11 0 -32 34 -33 53 0 27 35 0 38 -29z m137 -34 c-3 -5 -11 -10 -16 -10
-6 0 -7 5 -4 10 3 6 11 10 16 10 6 0 7 -4 4 -10z"/>
<path d="M1640 1649 c0 -5 5 -7 10 -4 6 3 10 8 10 11 0 2 -4 4 -10 4 -5 0 -10
-5 -10 -11z"/>
<path d="M2908 3993 c7 -3 16 -2 19 1 4 3 -2 6 -13 5 -11 0 -14 -3 -6 -6z"/>
<path d="M3410 3990 c-14 -4 -20 -8 -15 -9 12 -1 13 -56 2 -67 -12 -13 -8 -81
8 -110 11 -21 15 -57 14 -124 -1 -52 4 -117 11 -143 8 -30 10 -65 5 -95 -10
-65 -10 -139 2 -188 6 -26 7 -67 1 -110 -7 -54 -6 -80 8 -131 15 -54 15 -72 5
-111 -11 -46 -11 -63 8 -172 13 -77 -7 -174 -37 -178 -25 -4 -75 22 -128 65
-92 75 -136 103 -173 109 -34 6 -43 2 -78 -30 -22 -19 -69 -48 -104 -64 -65
-29 -114 -75 -145 -133 -16 -32 -16 -41 5 -162 5 -33 6 -70 1 -87 -10 -35 6
-72 48 -112 15 -14 34 -45 42 -68 25 -74 133 -157 193 -147 104 17 195 35 205
41 7 4 12 16 12 27 0 25 19 63 83 167 40 64 57 82 72 80 18 -3 20 -11 22 -103
1 -55 5 -172 8 -260 8 -242 8 -266 0 -321 -6 -39 -3 -58 10 -84 15 -30 16 -42
4 -125 -9 -72 -10 -102 0 -136 14 -54 15 -74 6 -170 -6 -55 -4 -82 5 -100 8
-14 12 -48 10 -84 -5 -114 -3 -160 9 -205 10 -37 9 -60 -4 -132 -15 -80 -15
-90 0 -119 22 -42 12 -75 -35 -120 -37 -35 -60 -87 -60 -137 0 -30 19 -36 167
-55 134 -17 173 -30 188 -65 9 -21 16 -22 112 -22 l103 0 0 294 c0 201 -4 304
-12 323 -16 40 -17 338 0 355 7 7 12 38 12 77 0 46 -3 62 -10 51 -7 -10 -10
30 -10 122 0 108 -3 140 -15 152 -23 22 -19 80 8 113 19 24 22 37 19 91 -4 64
-22 88 -22 29 0 -19 -3 -36 -6 -40 -8 -8 -54 14 -83 41 -13 12 -27 22 -31 22
-14 0 -8 -68 6 -74 8 -3 12 -15 10 -28 -3 -13 -5 -26 -5 -30 -1 -5 -10 -8 -21
-8 -37 0 -44 -44 -21 -134 26 -102 45 -447 29 -516 -6 -25 -12 -88 -13 -140
-3 -111 -22 -210 -43 -228 -24 -19 -60 -15 -72 9 -10 19 -23 201 -35 499 -2
58 -7 164 -10 235 -4 88 -2 148 6 185 15 66 15 107 -1 180 -6 30 -13 132 -15
227 -3 141 -2 172 10 177 8 3 17 1 20 -3 2 -5 26 -12 52 -17 82 -14 123 -1
123 37 0 29 38 62 63 55 12 -3 32 -9 45 -12 l22 -6 0 177 0 177 -101 -4 c-92
-3 -102 -5 -120 -27 -13 -16 -18 -33 -14 -50 8 -41 -6 -53 -61 -49 l-49 3 -11
55 c-6 30 -13 103 -17 162 -8 140 -10 138 136 138 62 0 118 4 125 8 10 7 12
86 10 381 -3 317 -5 373 -18 381 -41 26 -141 -2 -112 -31 17 -18 15 -43 -7
-63 -15 -13 -34 -16 -87 -14 l-69 3 0 30 c0 29 2 30 50 33 90 6 97 47 8 47
-60 0 -80 26 -44 56 13 10 37 20 55 20 30 1 30 2 -7 9 -66 12 -66 13 -78 255
-5 120 -12 222 -15 227 -3 4 -19 8 -35 8 -20 0 -28 4 -23 11 5 9 73 10 245 7
132 -3 239 -1 239 3 0 11 -556 10 -590 -1z m167 -673 c-6 -20 -27 -19 -27 2 0
14 5 19 15 14 9 -3 14 -10 12 -16z m47 -362 c-9 -23 -23 1 -16 27 4 17 6 18
13 5 5 -8 6 -23 3 -32z m-469 -295 c0 -18 -6 -26 -22 -28 -26 -4 -43 35 -22
49 24 15 44 5 44 -21z m303 -172 c19 -19 15 -92 -6 -118 -18 -22 -19 -22 -53
-6 -19 9 -44 32 -57 50 -13 19 -37 39 -53 45 -16 5 -29 17 -29 25 0 13 16 16
93 16 59 0 97 -4 105 -12z m532 -2125 c0 -214 -9 -281 -20 -155 -6 65 9 59
-132 46 -73 -6 -77 -6 -103 20 -31 31 -25 48 25 74 21 11 46 37 65 70 17 30
55 76 83 103 28 27 48 49 44 49 -9 0 20 20 31 20 4 0 7 -102 7 -227z"/>
<path d="M2995 3533 c-13 -12 -15 -28 -12 -62 9 -78 19 -115 35 -134 15 -17
15 -21 -1 -48 -16 -29 -16 -32 18 -119 19 -49 35 -105 35 -123 0 -52 48 -134
64 -109 3 5 12 105 21 223 8 118 18 230 21 249 4 29 0 40 -20 59 -14 13 -28
36 -31 52 -6 28 -9 29 -60 29 -37 0 -59 -5 -70 -17z"/>
<path d="M2527 2930 c-3 -19 -11 -66 -17 -105 -6 -38 -20 -91 -32 -116 -27
-63 -22 -95 14 -91 14 2 29 -2 33 -8 3 -5 11 -8 16 -5 11 7 11 263 0 320 l-8
40 -6 -35z"/>
<path d="M1940 2687 l-35 -12 -3 -73 c-2 -58 0 -73 13 -78 8 -3 13 -9 10 -14
-8 -12 62 -86 97 -103 43 -19 118 -32 118 -19 0 5 -15 17 -32 26 -28 13 -30
16 -11 16 13 0 22 6 20 13 -1 8 14 12 51 12 50 -1 52 0 52 25 0 33 -31 62 -93
84 -55 21 -53 36 6 36 54 0 87 9 87 24 0 11 -11 17 -93 50 -51 21 -145 27
-187 13z"/>
<path d="M2366 2451 c-12 -13 -19 -42 -22 -88 l-4 -68 20 45 c20 42 38 130 28
130 -3 0 -13 -9 -22 -19z"/>
<path d="M41 435 c0 -11 4 -27 9 -35 9 -13 10 -13 9 0 0 8 -4 24 -9 35 l-9 20
0 -20z"/>
<path d="M2902 370 c0 -14 2 -19 5 -12 2 6 2 18 0 25 -3 6 -5 1 -5 -13z"/>
<path d="M105 327 c-8 -20 -12 -43 -9 -51 7 -19 -7 -21 -24 -4 -16 16 -15 8 5
-38 10 -24 16 -60 14 -91 -2 -41 1 -53 12 -53 20 0 41 26 27 35 -7 4 -7 13 1
27 8 14 8 27 1 42 -19 39 -20 52 -10 105 11 64 4 77 -17 28z"/>
<path d="M2866 271 c-9 -16 -16 -38 -15 -48 0 -11 5 -6 11 12 6 17 15 36 21
43 5 7 7 15 4 18 -3 3 -13 -8 -21 -25z"/>
<path d="M2824 167 c4 -19 1 -29 -11 -36 -14 -7 -15 -13 -6 -34 10 -21 9 -28
-6 -41 -10 -9 -23 -16 -29 -16 -18 0 -14 -14 8 -28 18 -11 20 -10 20 13 0 15
6 25 14 25 7 0 16 9 19 20 3 13 11 18 20 14 19 -7 16 48 -4 73 -12 14 -12 15
0 9 9 -6 12 -4 9 5 -3 8 -13 16 -23 17 -14 3 -17 -1 -11 -21z"/>
<path d="M2750 70 c0 -5 5 -10 11 -10 5 0 7 5 4 10 -3 6 -8 10 -11 10 -2 0 -4
-4 -4 -10z"/>
<path d="M90 20 c-9 -17 -8 -20 13 -20 29 0 37 7 30 26 -8 20 -31 17 -43 -6z"/>
</g>
</svg>
